Running SS (AS)05b_kinetics.mot																		
nRows=99																		
nColumns=19																		
																		
name Running SS (AS)05b_kinetics.mot																		
datacolumns 19																		
datarows 99																		
range 0.416666667 0.507407407																		
endheader																		
time	1_ground_force_vx	1_ground_force_vy	1_ground_force_vz	1_ground_force_px	1_ground_force_py	1_ground_force_pz	2_ground_force_vx	2_ground_force_vy	2_ground_force_vz	2_ground_force_px	2_ground_force_py	2_ground_force_pz	1_ground_torque_x	1_ground_torque_y	1_ground_torque_z	2_ground_torque_x	2_ground_torque_y	2_ground_torque_z
0.416666667	0	0	0	0	0	0	0	0	0	0	0	0	0	0	0	0	0	0
0.417592593	0	0	0	0	0	0	0	0	0	0	0	0	0	0	0	0	0	0
0.418518519	0	0	0	0	0	0	0	0	0	0	0	0	0	0	0	0	0	0
0.419444444	0	0	0	0	0	0	0	0	0	0	0	0	0	0	0	0	0	0
0.42037037	0	0	0	0	0	0	0	0	0	0	0	0	0	0	0	0	0	0
0.421296296	0	0	0	0	0	0	0	0	0	0	0	0	0	0	0	0	0	0
0.422222222	0	0	0	0	0	0	0	0	0	0	0	0	0	0	0	0	0	0
0.423148148	0	0	0	0	0	0	0	0	0	0	0	0	0	0	0	0	0	0
0.424074074	0	0	0	0	0	0	0	0	0	0	0	0	0	0	0	0	0	0
0.425	0	0	0	0	0	0	0	0	0	0	0	0	0	0	0	0	0	0
0.425925926	0	0	0	0	0	0	0	0	0	0	0	0	0	0	0	0	0	0
0.426851852	0	0	0	0	0	0	0	0	0	0	0	0	0	0	0	0	0	0
0.427777778	0	0	0	0	0	0	0	0	0	0	0	0	0	0	0	0	0	0
0.428703704	0	0	0	0	0	0	0	0	0	0	0	0	0	0	0	0	0	0
0.42962963	0	0	0	0	0	0	0	0	0	0	0	0	0	0	0	0	0	0
0.430555556	0	0	0	0	0	0	0	0	0	0	0	0	0	0	0	0	0	0
0.431481482	0	0	0	0	0	0	0	0	0	0	0	0	0	0	0	0	0	0
0.432407407	0	0	0	0	0	0	0	0	0	0	0	0	0	0	0	0	0	0
0.433333333	0	0	0	0	0	0	0	0	0	0	0	0	0	0	0	0	0	0
0.434259259	0	0	0	0	0	0	0	0	0	0	0	0	0	0	0	0	0	0
0.435185185	0	0	0	0	0	0	0	0	0	0	0	0	0	0	0	0	0	0
0.436111111	0	0	0	0	0	0	0	0	0	0	0	0	0	0	0	0	0	0
0.437037037	0	0	0	0	0	0	0	0	0	0	0	0	0	0	0	0	0	0
0.437962963	0	0	0	0	0	0	0	0	0	0	0	0	0	0	0	0	0	0
0.438888889	0	0	0	0	0	0	0	0	0	0	0	0	0	0	0	0	0	0
0.439814815	0	0	0	0	0	0	0	0	0	0	0	0	0	0	0	0	0	0
0.440740741	0	0	0	0	0	0	0	0	0	0	0	0	0	0	0	0	0	0
0.441666667	0	0	0	0	0	0	0	0	0	0	0	0	0	0	0	0	0	0
0.442592593	0	0	0	0	0	0	0	0	0	0	0	0	0	0	0	0	0	0
0.443518519	0	0	0	0	0	0	-12.64410746	19.76485287	2.14900115	1.425217577	0	0.180183743	0	0	0	0	-0.41603085	0
0.444444444	0	0	0	0	0	0	-17.4151575	46.59145921	2.778300827	1.425217577	0	0.180183743	0	0	0	0	-0.085205799	0
0.44537037	0	0	0	0	0	0	-22.05521238	75.00373256	3.343559491	1.449427256	0	0.184504855	0	0	0	0	0.044957768	0
0.446296296	0	0	0	0	0	0	-26.54537948	104.9686427	3.840381948	1.461191906	0	0.186564646	0	0	0	0	0.128788325	0
0.447222222	0	0	0	0	0	0	-30.86909761	136.4395212	4.265128608	1.468333395	0	0.187783146	0	0	0	0	0.190941095	0
0.448148148	0	0	0	0	0	0	-35.01239196	169.3556101	4.614986468	1.473258422	0	0.188597311	0	0	0	0	0.238645733	0
0.449074074	0	0	0	0	0	0	-38.96409223	203.6417628	4.8880302	1.476953177	0	0.189186206	0	0	0	0	0.27460062	0
0.45	0	0	0	0	0	0	-42.71600894	239.2083158	5.08327187	1.479896556	0	0.189636794	0	0	0	0	0.299927194	0
0.450925926	0	0	0	0	0	0	-46.26306371	275.9511474	5.200697892	1.482349176	0	0.189996396	0	0	0	0	0.315110322	0
0.451851852	0	0	0	0	0	0	-49.60336983	313.7519358	5.241292029	1.484465054	0	0.190292972	0	0	0	0	0.320365884	0
0.452777778	0	0	0	0	0	0	-52.7382601	352.4786264	5.207043432	1.486341108	0	0.190544102	0	0	0	0	0.315806958	0
0.453703704	0	0	0	0	0	0	-55.67226012	391.9861156	5.100939065	1.488041446	0	0.190761395	0	0	0	0	0.301527611	0
0.45462963	0	0	0	0	0	0	-58.41300593	432.1171527	4.926940138	1.48961025	0	0.190952832	0	0	0	0	0.277648727	0
0.455555556	0	0	0	0	0	0	-60.97110647	472.7034585	4.689942575	1.491079048	0	0.191124079	0	0	0	0	0.244344437	0
0.456481482	0	0	0	0	0	0	-63.35995256	513.567055	4.39572192	1.492471037	0	0.191279276	0	0	0	0	0.201857626	0
0.457407407	0	0	0	0	0	0	-65.59547556	554.5217945	4.050863541	1.493803756	0	0.191421519	0	0	0	0	0.150508671	0
0.458333333	0	0	0	0	0	0	-67.69586042	595.3750754	3.662679445	1.495090815	0	0.191553173	0	0	0	0	0.090699575	0
0.459259259	0	0	0	0	0	0	-69.68121952	635.9297219	3.239113481	1.49634303	0	0.191676079	0	0	0	0	0.022914688	0
0.460185185	0	0	0	0	0	0	-71.57323464	675.9860069	2.788637073	1.497569202	0	0.191791689	0	0	0	0	-0.052281249	0
0.461111111	0	0	0	0	0	0	-73.39477591	715.3437882	2.320137939	1.498776666	0	0.191901171	0	0	0	0	-0.134247288	0
0.462037037	0	0	0	0	0	0	-75.16950666	753.8047274	1.842804421	1.499971671	0	0.192005467	0	0	0	0	-0.222272319	0
0.462962963	0	0	0	0	0	0	-76.92148401	791.1745577	1.366008188	1.501159669	0	0.192105353	0	0	0	0	-0.315582709	0
0.463888889	0	0	0	0	0	0	-78.67476434	827.2653634	0.899188078	1.502345522	0	0.192201464	0	0	0	0	-0.413351255	0
0.464814815	0	0	0	0	0	0	-80.45302253	861.8978344	0.45173781	1.50353366	0	0.19229433	0	0	0	0	-0.514707187	0
0.465740741	0	0	0	0	0	0	-82.27919305	894.9034565	0.032900172	1.504728209	0	0.192384387	0	0	0	0	-0.618746976	0
0.466666667	0	0	0	0	0	0	-84.1751399	926.1266012	-0.348329892	1.505933076	0	0.192471996	0	0	0	0	-0.724545655	0
0.467592593	0	0	0	0	0	0	-86.16136104	955.4264765	-0.683291196	1.507152034	0	0.19255745	0	0	0	0	-0.831168389	0
0.468518519	0	0	0	0	0	0	-88.25673187	982.6789078	-0.963729545	1.508388776	0	0.192640984	0	0	0	0	-0.937682	0
0.469444444	0	0	0	0	0	0	-90.47829073	1007.777916	-1.181857071	1.509646964	0	0.192722778	0	0	0	0	-1.043166183	0
0.47037037	0	0	0	0	0	0	-92.84106835	1030.637069	-1.330397027	1.510930267	0	0.192802959	0	0	0	0	-1.146724105	0
0.471296296	0	0	0	0	0	0	-95.35796169	1051.19058	-1.402613918	1.512242391	0	0.192881609	0	0	0	0	-1.247492132	0
0.472222222	0	0	0	0	0	0	-98.03965168	1069.394144	-1.392329457	1.513587103	0	0.192958756	0	0	0	0	-1.344648416	0
0.473148148	0	0	0	0	0	0	-100.8945632	1085.225493	-1.293925348	1.514968241	0	0.193034382	0	0	0	0	-1.43742008	0
0.474074074	0	0	0	0	0	0	-103.9288646	1098.684662	-1.102334566	1.516389727	0	0.193108419	0	0	0	0	-1.525088778	0
0.475	0	0	0	0	0	0	-107.1465039	1109.793975	-0.813023335	1.517855563	0	0.193180745	0	0	0	0	-1.606994425	0
0.475925926	0	0	0	0	0	0	-110.5492766	1118.597735	-0.421966699	1.51936982	0	0.19325119	0	0	0	0	-1.682536912	0
0.476851852	0	0	0	0	0	0	-114.1369218	1125.161638	0.07437893	1.520936626	0	0.193319527	0	0	0	0	-1.751175673	0
0.477777778	0	0	0	0	0	0	-117.9072395	1129.571912	0.679102352	1.522560128	0	0.193385476	0	0	0	0	-1.812427049	0
0.478703704	0	0	0	0	0	0	-121.8562254	1131.934203	1.394859084	1.52424445	0	0.193448702	0	0	0	0	-1.865859461	0
0.47962963	0	0	0	0	0	0	-125.9782134	1132.372211	2.223883542	1.525993637	0	0.193508816	0	0	0	0	-1.911086547	0
0.480555556	0	0	0	0	0	0	-130.2660229	1131.026114	3.167988075	1.527811582	0	0.19356538	0	0	0	0	-1.947758581	0
0.481481482	0	0	0	0	0	0	-134.711102	1128.050802	4.228545974	1.529701931	0	0.19361791	0	0	0	0	-1.975552683	0
0.482407407	0	0	0	0	0	0	-139.3036623	1123.613932	5.406456906	1.531667981	0	0.193665881	0	0	0	0	-1.994162507	0
0.483333333	0	0	0	0	0	0	-144.0328015	1117.893856	6.70209476	1.533712547	0	0.193708736	0	0	0	0	-2.003288292	0
0.484259259	0	0	0	0	0	0	-148.8866098	1111.077438	8.115239528	1.535837829	0	0.193745901	0	0	0	0	-2.002628278	0
0.485185185	0	0	0	0	0	0	-153.8522587	1103.357801	9.644996342	1.538045245	0	0.193776795	0	0	0	0	-1.991872557	0
0.486111111	0	0	0	0	0	0	-158.9160715	1094.932024	11.28970597	1.540335271	0	0.193800851	0	0	0	0	-1.970700455	0
0.487037037	0	0	0	0	0	0	-164.063576	1085.998849	13.04685192	1.542707262	0	0.193817533	0	0	0	0	-1.938782397	0
0.487962963	0	0	0	0	0	0	-169.2795428	1076.756403	14.91296967	1.545159282	0	0.193826361	0	0	0	0	-1.89578707	0
0.488888889	0	0	0	0	0	0	-174.548011	1067.399987	16.88356398	1.547687941	0	0.193826931	0	0	0	0	-1.841394374	0
0.489814815	0	0	0	0	0	0	-179.8523071	1058.119958	18.95303976	1.550288258	0	0.193818947	0	0	0	0	-1.775314296	0
0.490740741	0	0	0	0	0	0	-185.1750607	1049.099738	21.11465173	1.552953553	0	0.193802242	0	0	0	0	-1.697311334	0
0.491666667	0	0	0	0	0	0	-190.4982237	1040.513962	23.36047697	1.555675389	0	0.193776801	0	0	0	0	-1.607233606	0
0.492592593	0	0	0	0	0	0	-195.8030979	1032.526809	25.6814136	1.558443575	0	0.193742786	0	0	0	0	-1.505045148	0
0.493518519	0	0	0	0	0	0	-201.0703758	1025.290513	28.06720722	1.561246228	0	0.19370055	0	0	0	0	-1.390859459	0
0.494444444	0	0	0	0	0	0	-206.2802009	1018.944091	30.50650586	1.564069926	0	0.193650646	0	0	0	0	-1.264971863	0
0.49537037	0	0	0	0	0	0	-211.4122486	1013.612272	32.9869426	1.56689993	0	0.193593832	0	0	0	0	-1.127888092	0
0.496296296	0	0	0	0	0	0	-216.4458328	1009.404666	35.49524399	1.569720487	0	0.193531066	0	0	0	0	-0.980346427	0
0.497222222	0	0	0	0	0	0	-221.360037	1006.415142	38.01736183	1.5725152	0	0.193463489	0	0	0	0	-0.823331025	0
0.498148148	0	0	0	0	0	0	-226.1338717	1004.721436	40.53862428	1.57526745	0	0.1933924	0	0	0	0	-0.658074572	0
0.499074074	0	0	0	0	0	0	-230.7464531	1004.384976	43.04390255	1.577960855	0	0.193319229	0	0	0	0	-0.486049121	0
0.5	0	0	0	0	0	0	-235.1772029	1005.450904	45.51778833	1.58057973	0	0.193245494	0	0	0	0	-0.308944913	0
0.500925926	0	0	0	0	0	0	-239.4060611	1007.948306	47.94477744	1.583109534	0	0.193172758	0	0	0	0	-0.128637925	0
0.501851852	0	0	0	0	0	0	-243.4137085	1011.890615	50.30945505	1.585537273	0	0.193102586	0	0	0	0	0.052852193	0
0.502777778	0	0	0	0	0	0	-247.1817901	1017.276174	52.59667814	1.587851838	0	0.193036499	0	0	0	0	0.233411394	0
0.503703704	0	0	0	0	0	0	-250.6931334	1024.088959	54.79175157	1.590044253	0	0.192975927	0	0	0	0	0.4108848	0
0.50462963	0	0	0	0	0	0	-253.9319544	1032.299414	56.88059467	1.592107842	0	0.192922181	0	0	0	0	0.583131485	0
0.505555556	0	0	0	0	0	0	-256.8840445	1041.865408	58.84989595	1.594038287	0	0.192876414	0	0	0	0	0.748077443	0
0.506481482	0	0	0	0	0	0	-259.5369323	1052.733275	60.68725466	1.595833599	0	0.192839601	0	0	0	0	0.903764161	0
0.507407407	0	0	0	0	0	0	-261.8800166	1064.838933	62.38130825	1.597494004	0	0.192812529	0	0	0	0	1.04839073	0
